<svg xmlns="http://www.w3.org/2000/svg" viewBox="-2421 536 40 40">
  <defs>
    <style>
      .cls-1 {
        fill: #03a67b;
      }
    </style>
  </defs>
  <g id="search" transform="translate(-2421 536)">
    <g id="Group_2" data-name="Group 2">
      <g id="Group_1" data-name="Group 1">
        <path id="Path_9" data-name="Path 9" class="cls-1" d="M249.1,90.113a12.342,12.342,0,0,0-2.5-1.566l-.042-.022c-1.474-.768-1.964-1.171-1.964-2.041a1.232,1.232,0,0,1,1.242-1.118,1.154,1.154,0,0,1,1.179,1.093h3.124a4.229,4.229,0,0,0-2.812-3.956V79.977H244.2v2.586a4.31,4.31,0,0,0-2.734,3.921c0,2.912,2.281,4.1,3.644,4.811l.042.022c1.582.825,2.327,1.287,2.327,1.966a1.641,1.641,0,1,1-3.28-.018h-3.124a4.884,4.884,0,0,0,3.2,4.535v2.406H247.4V97.8a4.858,4.858,0,0,0,3.2-4.521A4.109,4.109,0,0,0,249.1,90.113Z" transform="translate(-222.243 -73.729)"/>
        <path id="Path_10" data-name="Path 10" class="cls-1" d="M23.6,0A16.393,16.393,0,0,0,10.954,26.837L0,37.791,2.209,40,13.163,29.046A16.4,16.4,0,1,0,23.6,0Zm0,29.679A13.278,13.278,0,1,1,36.876,16.4,13.293,13.293,0,0,1,23.6,29.679Z"/>
      </g>
    </g>
  </g>
</svg>
