<svg xmlns="http://www.w3.org/2000/svg" viewBox="-1770.523 3261 17.206 16.441">
  <defs>
    <style>
      .cls-1 {
        fill: #fff;
      }
    </style>
  </defs>
  <g id="linkedin-logo" transform="translate(-1770.523 3261)">
    <path id="LinkedIn" class="cls-1" d="M17.206,19.638V26H13.518V20.064c0-1.491-.533-2.508-1.868-2.508A2.018,2.018,0,0,0,9.758,18.9a2.523,2.523,0,0,0-.122.9V26H5.946s.05-10.052,0-11.094H9.635v1.572l-.024.036h.024v-.036a3.663,3.663,0,0,1,3.324-1.833C15.386,14.645,17.206,16.231,17.206,19.638ZM2.087,9.558a1.922,1.922,0,1,0-.049,3.834h.025a1.923,1.923,0,1,0,.024-3.834ZM.219,26H3.907V14.906H.219Z" transform="translate(0 -9.558)"/>
  </g>
</svg>
