<svg xmlns="http://www.w3.org/2000/svg" viewBox="-1807.516 3261 20.231 16.441">
  <defs>
    <style>
      .cls-1 {
        fill: #fff;
      }
    </style>
  </defs>
  <g id="twitter" transform="translate(-1807.516 3261)">
    <path id="Path_20" data-name="Path 20" class="cls-1" d="M20.232,49.9a8.3,8.3,0,0,1-2.384.654,4.163,4.163,0,0,0,1.825-2.3,8.309,8.309,0,0,1-2.636,1.007,4.155,4.155,0,0,0-7.073,3.786A11.784,11.784,0,0,1,1.41,48.716a4.155,4.155,0,0,0,1.284,5.542,4.134,4.134,0,0,1-1.88-.519c0,.017,0,.035,0,.052a4.153,4.153,0,0,0,3.329,4.07,4.155,4.155,0,0,1-1.874.071,4.155,4.155,0,0,0,3.877,2.882A8.327,8.327,0,0,1,.991,62.591,8.4,8.4,0,0,1,0,62.532,11.747,11.747,0,0,0,6.364,64.4a11.729,11.729,0,0,0,11.809-11.81q0-.27-.012-.537A8.432,8.432,0,0,0,20.232,49.9Z" transform="translate(-0.001 -47.956)"/>
  </g>
</svg>
