<svg xmlns="http://www.w3.org/2000/svg" viewBox="-1736.818 3263.602 24.255 13.839">
  <defs>
    <style>
      .cls-1 {
        fill: #fff;
      }
    </style>
  </defs>
  <g id="vk" transform="translate(-1736.818 3263.602)">
    <g id="Group_11" data-name="Group 11" transform="translate(0 0)">
      <path id="Path_21" data-name="Path 21" class="cls-1" d="M24.039,122.268a10.814,10.814,0,0,0-2.409-2.787c-2.032-1.886-1.759-1.58.688-4.841,1.49-1.986,2.086-3.2,1.9-3.717-.177-.494-1.273-.364-1.273-.364l-3.645.021a.833.833,0,0,0-.471.083,1.027,1.027,0,0,0-.321.391,21.113,21.113,0,0,1-1.348,2.844c-1.624,2.758-2.274,2.9-2.539,2.732-.617-.4-.462-1.6-.462-2.459,0-2.673.4-3.787-.79-4.075a6.256,6.256,0,0,0-1.7-.17,7.874,7.874,0,0,0-3.026.309c-.415.2-.735.656-.54.682a1.635,1.635,0,0,1,1.076.541,3.512,3.512,0,0,1,.361,1.651s.215,3.146-.5,3.537c-.493.268-1.167-.279-2.615-2.782a23.333,23.333,0,0,1-1.3-2.7,1.077,1.077,0,0,0-.3-.4,1.511,1.511,0,0,0-.561-.226l-3.466.021s-.52.015-.711.241c-.17.2-.014.617-.014.617s2.714,6.348,5.785,9.548a8.325,8.325,0,0,0,6.017,2.741h1.449a1.222,1.222,0,0,0,.661-.29,1.056,1.056,0,0,0,.2-.637s-.029-1.945.875-2.232,2.033,1.88,3.244,2.712a2.3,2.3,0,0,0,1.612.491l3.24-.045S24.842,123.6,24.039,122.268Z" transform="translate(0 -109.924)"/>
    </g>
  </g>
</svg>
