<svg xmlns="http://www.w3.org/2000/svg" viewBox="-1833 3261 8.889 16.441">
  <defs>
    <style>
      .cls-1 {
        fill: #fff;
      }
    </style>
  </defs>
  <g id="facebook-logo" transform="translate(-1833 3261)">
    <path id="Path_19" data-name="Path 19" class="cls-1" d="M30.631,0,28.5,0a3.744,3.744,0,0,0-3.943,4.046V5.912H22.412a.335.335,0,0,0-.335.335v2.7a.335.335,0,0,0,.335.335h2.144v6.821a.335.335,0,0,0,.335.335h2.8a.335.335,0,0,0,.335-.335V9.285H30.53a.335.335,0,0,0,.335-.335v-2.7a.336.336,0,0,0-.335-.335H28.023V4.33c0-.76.181-1.146,1.171-1.146h1.436a.335.335,0,0,0,.335-.335V.339A.335.335,0,0,0,30.631,0Z" transform="translate(-22.077)"/>
  </g>
</svg>
